#N canvas 181 22 1076 852 10;
#X obj 114 80 *~;
#X obj 641 587 dac~;
#X obj 118 41 vline~;
#X obj 740 33 vd~ pitch;
#X obj 815 -71 vsl 15 128 0 0.9 0 1 empty empty Feedback 0 -9 0 10
-262144 -1 -1 11000 1;
#X obj 50 267 s~ pitch;
#X obj 867 1 r~ pitch;
#X msg 206 -191 0 \, 0.2 10 0 \, 0 300 100;
#X text 60 -173 SOUNDGENERATOR;
#X obj 732 -3 vline~;
#X obj 751 75 *~;
#X obj 806 105 delwrite~ pitch 2000;
#X msg 732 -24 \$1 200;
#X obj 43 6 adc~;
#X floatatom 651 -119 5 0 0 0 - - -;
#X msg 700 -191 seed 27;
#X obj 390 80 vd~ pitch;
#X obj 488 -92 vsl 15 128 0 0.9 0 1 empty empty Feedback 0 -9 0 10
-262144 -1 -1 9200 1;
#X obj 304 131 r~ pitch;
#X obj 317 43 vline~;
#X obj 444 128 *~;
#X obj 306 160 delwrite~ pitch 2000;
#X msg 317 22 \$1 200;
#X floatatom 309 -68 5 0 0 0 - - -;
#X msg 393 -126 seed 27;
#X obj 33 -152 bng 15 250 50 0 empty empty empty 17 7 0 10 -262144
-1 -1;
#X obj 14 -219 r trigger;
#X obj 89 174 *~;
#X obj 184 32 vsl 15 128 0.25 100 1 0 empty empty empty 0 -9 0 10 -258113
-1 -1 0 1;
#X obj 616 -162 random 150;
#X obj 309 -97 random 300;
#X obj 309 -126 metro 2000;
#X obj 616 -191 metro 3000;
#X obj 309 -23 + 100;
#X obj 672 -68 + 121;
#X obj 528 429 *~;
#X obj 563 187 env~;
#X obj 563 209 dbtorms;
#X obj 672 427 *~;
#X msg 572 285 1 \$1;
#X obj 574 312 /;
#X obj 563 345 min 1;
#X obj 619 356 lop~ 5;
#X obj 49 -71 metro 10;
#X obj 209 -81 r volume;
#X obj 662 522 lop~;
#X msg 795 441 750;
#X obj 573 510 lop~;
#X obj 566 248 + 0.75;
#X msg 19 -37 20;
#X connect 2 0 0 1;
#X connect 3 0 10 0;
#X connect 4 0 10 1;
#X connect 6 0 11 0;
#X connect 7 0 2 0;
#X connect 9 0 3 0;
#X connect 10 0 11 0;
#X connect 10 0 36 0;
#X connect 10 0 38 0;
#X connect 12 0 9 0;
#X connect 13 0 27 0;
#X connect 13 1 27 0;
#X connect 14 0 34 0;
#X connect 15 0 29 0;
#X connect 16 0 20 0;
#X connect 17 0 20 1;
#X connect 18 0 21 0;
#X connect 19 0 16 0;
#X connect 20 0 21 0;
#X connect 20 0 36 0;
#X connect 20 0 35 0;
#X connect 22 0 19 0;
#X connect 23 0 33 0;
#X connect 24 0 30 0;
#X connect 25 0 43 0;
#X connect 25 0 31 0;
#X connect 25 0 32 0;
#X connect 25 0 46 0;
#X connect 25 0 49 0;
#X connect 26 0 25 0;
#X connect 27 0 5 0;
#X connect 28 0 27 1;
#X connect 29 0 14 0;
#X connect 30 0 23 0;
#X connect 31 0 30 0;
#X connect 32 0 29 0;
#X connect 33 0 22 0;
#X connect 34 0 12 0;
#X connect 35 0 47 0;
#X connect 36 0 37 0;
#X connect 37 0 48 0;
#X connect 38 0 45 0;
#X connect 39 0 40 0;
#X connect 40 0 41 0;
#X connect 41 0 42 0;
#X connect 42 0 35 1;
#X connect 42 0 38 1;
#X connect 43 0 7 0;
#X connect 44 0 28 0;
#X connect 45 0 1 1;
#X connect 46 0 45 1;
#X connect 46 0 47 1;
#X connect 47 0 1 0;
#X connect 48 0 39 0;
#X connect 49 0 28 0;
